<?xml version="1.0" encoding="UTF-8" standalone="no"?>
<!DOCTYPE svg PUBLIC "-//W3C//DTD SVG 1.1//EN" "http://www.w3.org/Graphics/SVG/1.1/DTD/svg11.dtd">
<svg width="100%" height="100%" viewBox="0 0 336 114" version="1.1" xmlns="http://www.w3.org/2000/svg" xmlns:xlink="http://www.w3.org/1999/xlink" xml:space="preserve" xmlns:serif="http://www.serif.com/" style="fill-rule:evenodd;clip-rule:evenodd;stroke-linejoin:round;stroke-miterlimit:2;">
    <g id="ArtBoard1" transform="matrix(0.948153,0,0,0.944519,18.9155,12.0121)">
        <rect x="-19.95" y="-12.718" width="353.94" height="120.113" style="fill:none;"/>
        <g transform="matrix(1.05468,0,0,1.05874,-1.11422,1.04591)">
            <g id="Gruppe_2">
                <g id="Gruppe_1">
                    <g id="Rechteck_1" transform="matrix(1,0,0,1,0.107,65.361)">
                        <rect x="0" y="0" width="4.4" height="1.222" style="fill:rgb(140,139,139);"/>
                    </g>
                    <g id="Rechteck_2" transform="matrix(1,0,0,1,7.664,65.361)">
                        <rect x="0" y="0" width="4.4" height="1.222" style="fill:rgb(140,139,139);"/>
                    </g>
                    <g id="Rechteck_3" transform="matrix(1,0,0,1,15.222,65.361)">
                        <rect x="0" y="0" width="4.4" height="1.222" style="fill:rgb(140,139,139);"/>
                    </g>
                    <g id="Rechteck_4" transform="matrix(1,0,0,1,22.779,65.361)">
                        <rect x="0" y="0" width="4.4" height="1.222" style="fill:rgb(140,139,139);"/>
                    </g>
                    <g id="Rechteck_5" transform="matrix(1,0,0,1,30.337,65.361)">
                        <rect x="0" y="0" width="4.4" height="1.222" style="fill:rgb(140,139,139);"/>
                    </g>
                    <g id="Rechteck_6" transform="matrix(1,0,0,1,37.895,65.361)">
                        <rect x="0" y="0" width="4.4" height="1.222" style="fill:rgb(140,139,139);"/>
                    </g>
                    <g id="Rechteck_8" transform="matrix(1,0,0,1,45.452,65.361)">
                        <rect x="0" y="0" width="4.4" height="1.222" style="fill:rgb(140,139,139);"/>
                    </g>
                    <g id="Rechteck_10" transform="matrix(1,0,0,1,53.01,65.361)">
                        <rect x="0" y="0" width="4.4" height="1.222" style="fill:rgb(140,139,139);"/>
                    </g>
                    <g id="Rechteck_12" transform="matrix(1,0,0,1,60.567,65.361)">
                        <rect x="0" y="0" width="4.4" height="1.222" style="fill:rgb(140,139,139);"/>
                    </g>
                    <g id="Rechteck_14" transform="matrix(1,0,0,1,68.125,65.361)">
                        <rect x="0" y="0" width="4.4" height="1.222" style="fill:rgb(140,139,139);"/>
                    </g>
                    <g id="Rechteck_16" transform="matrix(1,0,0,1,75.683,65.361)">
                        <rect x="0" y="0" width="4.4" height="1.222" style="fill:rgb(140,139,139);"/>
                    </g>
                    <g id="Rechteck_18" transform="matrix(1,0,0,1,83.24,65.361)">
                        <rect x="0" y="0" width="4.4" height="1.222" style="fill:rgb(140,139,139);"/>
                    </g>
                    <g id="Rechteck_20" transform="matrix(1,0,0,1,90.798,65.361)">
                        <rect x="0" y="0" width="4.4" height="1.222" style="fill:rgb(140,139,139);"/>
                    </g>
                    <g id="Rechteck_21" transform="matrix(1,0,0,1,98.356,65.361)">
                        <rect x="0" y="0" width="4.4" height="1.222" style="fill:rgb(140,139,139);"/>
                    </g>
                    <g id="Rechteck_22" transform="matrix(1,0,0,1,105.913,65.361)">
                        <rect x="0" y="0" width="4.4" height="1.222" style="fill:rgb(140,139,139);"/>
                    </g>
                    <g id="Pfad_2" transform="matrix(1,0,0,1,0,-15.811)">
                        <path d="M4.406,41.629L15.164,41.577L15.164,37.558L4.406,37.61L4.406,33.837C4.406,31.419 5.621,29.858 7.844,29.849C11.725,29.834 13.154,30.199 14.907,30.905L16.068,27.416C13.988,26.528 11.768,26.011 9.51,25.887C5.2,25.888 0,27.6 0,33.148L0.069,69.135L4.49,69.135L4.406,41.629ZM46.235,45.9C45.464,40.409 40.629,36.332 35.087,36.5C31.183,36.611 27.367,37.681 23.974,39.615L25.12,43.831C28.101,41.937 31.552,40.911 35.084,40.868C38.012,40.963 42,42.815 41.932,47L41.88,50.348C38.683,50.151 35.474,50.331 32.32,50.887C28.12,51.787 22.137,54.533 22.137,60.46C22.137,66.748 26.562,69.979 30.956,69.979C35.322,69.925 39.407,67.784 41.935,64.224C42.041,65.869 42.242,67.507 42.535,69.13L47.016,69.13C46.472,67.394 46.176,65.59 46.137,63.771L46.235,45.9ZM41.83,59.885C38.357,63.767 34.85,65.628 32.051,65.685C29.445,65.7 27.279,63.59 27.225,60.985C27.219,59.112 29.206,55.585 34.36,54.676C36.827,54.126 39.354,53.889 41.88,53.97L41.83,59.885ZM53.7,37.61L53.648,41.919L62.588,41.919L62.629,69.135L67.307,69.135L67.35,37.61L53.7,37.61ZM86.79,69.21L86.946,47.919C87.293,47.452 94.862,36.832 102.007,42.848L103.613,38.401C97,35.287 92.732,35.355 86.9,42.558L86.9,37.61L82.035,37.654L82.156,69.2L86.79,69.21Z" style="fill:rgb(140,139,139);"/>
                    </g>
                    <g id="Pfad_3" transform="matrix(1,0,0,1,-97.445,-15.557)">
                        <path d="M162.515,25.472C164.142,25.472 165.48,26.81 165.48,28.437C165.48,30.064 164.142,31.402 162.515,31.402C160.888,31.402 159.55,30.064 159.55,28.437C159.553,26.812 160.89,25.475 162.515,25.472" style="fill:rgb(140,139,139);"/>
                    </g>
                    <g id="Pfad_4" transform="matrix(1,0,0,1,-276.096,-32.87)">
                        <path d="M481.39,54.46L476.409,54.465L467.356,77.61L458.548,54.653L453.489,54.658L464.929,83.75C463.604,87.576 463.503,88.063 461.844,90.887C460.29,93.781 455.175,93.669 452.954,92.779L452.064,97.553C457.282,98.487 463.949,97.922 466.496,92.445L481.39,54.46ZM514.19,70.365C514.079,59.836 507.228,53.819 500.6,53.819C493.624,53.819 486.676,60.17 486.676,70.698C486.676,80.511 493.638,87.498 500.266,87.498C506.894,87.498 514.306,81.343 514.19,70.369M491.16,70.48C491.16,62.769 495.08,58.367 500.934,58.367C506.788,58.367 509.626,63.235 509.818,70.591C509.986,77.007 506.232,83.054 500.378,83.054C494.524,83.054 491.16,78.287 491.16,70.48M523.62,54.609L523.647,75.86C523.656,83.093 528.505,87.077 533.338,87.09C537.194,87.101 542.763,84.378 544.309,81.227L544.323,86.046L548.594,86.046L548.586,54.568L544.271,54.568L544.239,76.845C541.933,80.715 536.801,82.801 533.544,82.859C530.495,82.913 528.103,79.88 528.107,75.583L528.125,54.573L523.62,54.609Z" style="fill:rgb(140,139,139);"/>
                    </g>
                    <g id="Pfad_5" transform="matrix(1,0,0,1,-177.656,0)">
                        <path d="M317.647,0.175L290.883,54.4L290.883,66.47L323.594,66.47L323.594,78.37L335.319,78.37L335.319,66.645L341.462,66.645L341.462,55.975L335.311,55.975L335.306,33.907L323.606,33.907L323.569,55.975L303.563,55.975L330.241,0L317.647,0.175Z" style="fill:rgb(236,101,0);"/>
                    </g>
                    <g id="Pfad_6" transform="matrix(1,0,0,1,-329.273,-99.841)">
                        <path d="M544.981,165.144L543.341,165.39C543.302,165.143 543.167,164.921 542.965,164.773C542.74,164.626 542.474,164.554 542.206,164.566C541.841,164.548 541.483,164.677 541.214,164.924C540.935,165.258 540.801,165.691 540.844,166.124C540.797,166.595 540.931,167.067 541.22,167.443C541.487,167.706 541.853,167.846 542.228,167.828C542.263,167.831 542.297,167.833 542.332,167.833C542.9,167.833 543.379,167.394 543.428,166.828L545.062,167.059C544.925,167.637 544.576,168.143 544.084,168.477C543.5,168.824 542.827,168.991 542.149,168.956C541.351,168.998 540.565,168.739 539.949,168.23C538.861,167.115 538.861,165.31 539.949,164.195C540.575,163.685 541.37,163.426 542.176,163.47C542.811,163.439 543.442,163.582 544.002,163.883C544.465,164.174 544.81,164.62 544.976,165.141" style="fill:rgb(22,22,21);"/>
                    </g>
                    <g id="Pfad_7" transform="matrix(1,0,0,1,-340.087,-99.84)">
                        <path d="M556.837,166.141C556.842,165.665 556.984,165.2 557.245,164.802C557.524,164.365 557.928,164.022 558.403,163.815C558.929,163.581 559.5,163.464 560.076,163.472C560.923,163.437 561.754,163.713 562.413,164.246C563.002,164.722 563.338,165.444 563.324,166.201C563.337,166.965 562.998,167.694 562.405,168.175C561.755,168.71 560.93,168.989 560.088,168.958C559.522,168.961 558.961,168.85 558.439,168.633C557.952,168.445 557.535,168.111 557.245,167.677C556.962,167.216 556.82,166.682 556.837,166.142M558.537,166.216C558.533,166.26 558.531,166.304 558.531,166.348C558.531,167.16 559.199,167.828 560.011,167.828C560.033,167.828 560.055,167.828 560.077,167.827C560.481,167.838 560.874,167.689 561.168,167.412C561.48,167.091 561.641,166.652 561.61,166.206C561.638,165.766 561.477,165.334 561.168,165.02C560.547,164.469 559.603,164.469 558.982,165.02C558.668,165.337 558.506,165.775 558.537,166.22" style="fill:rgb(22,22,21);"/>
                    </g>
                    <g id="Pfad_8" transform="matrix(1,0,0,1,-352.377,-99.84)">
                        <path d="M576.961,163.592L578.494,163.592L578.494,164.307C579.002,163.768 579.713,163.465 580.454,163.472C580.814,163.463 581.171,163.534 581.5,163.679C581.796,163.817 582.048,164.034 582.229,164.306C582.483,164.041 582.787,163.828 583.122,163.679C583.445,163.54 583.794,163.47 584.146,163.472C584.55,163.46 584.951,163.541 585.318,163.708C585.625,163.853 585.877,164.094 586.033,164.396C586.169,164.742 586.228,165.113 586.205,165.484L586.205,168.839L584.542,168.839L584.542,165.839C584.578,165.493 584.519,165.144 584.37,164.83C584.196,164.622 583.932,164.51 583.661,164.53C583.429,164.529 583.202,164.591 583.002,164.709C582.799,164.826 582.642,165.01 582.56,165.23C582.451,165.581 582.405,165.947 582.423,166.314L582.423,168.834L580.761,168.834L580.761,165.958C580.78,165.626 580.75,165.292 580.672,164.969C580.621,164.831 580.524,164.714 580.397,164.639C580.241,164.559 580.066,164.521 579.89,164.529C579.648,164.525 579.41,164.585 579.199,164.703C578.997,164.812 578.84,164.99 578.756,165.203C578.648,165.553 578.603,165.919 578.622,166.284L578.622,168.834L576.96,168.834L576.961,163.592Z" style="fill:rgb(22,22,21);"/>
                    </g>
                    <g id="Pfad_9" transform="matrix(1,0,0,1,-369.552,-99.84)">
                        <path d="M605.082,163.592L606.615,163.592L606.615,164.307C607.123,163.768 607.834,163.465 608.575,163.472C608.935,163.463 609.292,163.534 609.621,163.679C609.917,163.817 610.169,164.034 610.35,164.306C610.604,164.041 610.908,163.828 611.243,163.679C611.566,163.54 611.915,163.47 612.267,163.472C612.671,163.46 613.072,163.541 613.439,163.708C613.746,163.853 613.998,164.094 614.154,164.396C614.29,164.742 614.349,165.113 614.326,165.484L614.326,168.839L612.663,168.839L612.663,165.839C612.699,165.493 612.64,165.144 612.491,164.83C612.317,164.622 612.053,164.51 611.782,164.53C611.55,164.529 611.323,164.591 611.123,164.709C610.92,164.826 610.763,165.01 610.681,165.23C610.573,165.581 610.526,165.947 610.544,166.314L610.544,168.834L608.881,168.834L608.881,165.958C608.9,165.626 608.87,165.292 608.792,164.969C608.741,164.831 608.644,164.714 608.517,164.639C608.361,164.559 608.186,164.521 608.01,164.529C607.768,164.525 607.53,164.585 607.319,164.703C607.117,164.812 606.96,164.99 606.876,165.203C606.768,165.553 606.723,165.919 606.743,166.284L606.743,168.834L605.08,168.834L605.082,163.592Z" style="fill:rgb(22,22,21);"/>
                    </g>
                    <g id="Pfad_10" transform="matrix(1,0,0,1,-386.867,-100.028)">
                        <path d="M637.607,169.028L637.607,168.242C637.364,168.532 637.056,168.759 636.707,168.905C636.334,169.065 635.931,169.147 635.525,169.146C635.134,169.152 634.747,169.073 634.39,168.915C634.082,168.784 633.825,168.554 633.661,168.262C633.494,167.898 633.418,167.5 633.437,167.1L633.437,163.78L635.1,163.78L635.1,166.19C635.075,166.645 635.106,167.101 635.193,167.548C635.254,167.714 635.372,167.854 635.526,167.943C635.714,168.047 635.927,168.097 636.142,168.088C636.409,168.093 636.673,168.026 636.906,167.894C637.108,167.787 637.269,167.617 637.366,167.41C637.479,166.947 637.521,166.47 637.491,165.994L637.491,163.78L639.154,163.78L639.154,169.028L637.607,169.028Z" style="fill:rgb(22,22,21);"/>
                    </g>
                    <g id="Pfad_11" transform="matrix(1,0,0,1,-398.787,-99.841)">
                        <path d="M658.678,168.84L657.016,168.84L657.016,166.162C657.039,165.792 657.003,165.421 656.909,165.062C656.839,164.898 656.717,164.762 656.562,164.674C656.385,164.578 656.187,164.531 655.986,164.536C655.715,164.533 655.447,164.602 655.211,164.736C654.998,164.851 654.831,165.037 654.74,165.261C654.634,165.654 654.591,166.061 654.613,166.467L654.613,168.843L652.951,168.843L652.951,163.595L654.494,163.595L654.494,164.366C655.022,163.782 655.78,163.457 656.567,163.476C656.909,163.472 657.25,163.528 657.573,163.641C657.833,163.725 658.07,163.87 658.262,164.064C658.415,164.23 658.526,164.43 658.587,164.647C658.659,164.953 658.69,165.266 658.68,165.58L658.678,168.84Z" style="fill:rgb(22,22,21);"/>
                    </g>
                    <g id="Pfad_12" transform="matrix(1,0,0,1,-410.687,-96.895)">
                        <path d="M672.434,158.65L674.1,158.65L674.1,159.935L672.438,159.935L672.434,158.65ZM672.434,160.65L674.1,160.65L674.1,165.898L672.438,165.898L672.434,160.65Z" style="fill:rgb(22,22,21);"/>
                    </g>
                    <g id="Pfad_13" transform="matrix(1,0,0,1,-415.659,-99.841)">
                        <path d="M686.422,165.144L684.782,165.39C684.743,165.143 684.608,164.921 684.406,164.773C684.181,164.626 683.915,164.554 683.647,164.566C683.282,164.548 682.924,164.677 682.655,164.924C682.376,165.258 682.242,165.691 682.285,166.124C682.238,166.595 682.372,167.067 682.661,167.443C682.928,167.706 683.294,167.846 683.669,167.828C683.704,167.831 683.738,167.833 683.773,167.833C684.341,167.833 684.82,167.394 684.869,166.828L686.503,167.059C686.366,167.637 686.017,168.143 685.525,168.477C684.941,168.824 684.268,168.991 683.59,168.956C682.792,168.998 682.006,168.739 681.39,168.23C680.302,167.115 680.302,165.31 681.39,164.195C682.016,163.685 682.811,163.426 683.617,163.47C684.252,163.439 684.883,163.582 685.443,163.883C685.906,164.174 686.251,164.62 686.417,165.141" style="fill:rgb(22,22,21);"/>
                    </g>
                    <g id="Pfad_14" transform="matrix(1,0,0,1,-426.39,-99.841)">
                        <path d="M699.825,165.194L698.316,164.966C698.457,164.495 698.769,164.093 699.191,163.839C699.765,163.561 700.401,163.435 701.038,163.473C701.6,163.447 702.162,163.521 702.697,163.694C703.003,163.798 703.27,163.993 703.463,164.252C703.644,164.64 703.721,165.068 703.685,165.495L703.667,167.116C703.656,167.458 703.683,167.801 703.748,168.137C703.814,168.383 703.915,168.619 704.048,168.837L702.4,168.837C702.358,168.744 702.3,168.608 702.24,168.427C702.214,168.344 702.194,168.29 702.182,168.263C701.91,168.486 701.602,168.662 701.271,168.782C700.938,168.898 700.587,168.957 700.234,168.954C699.69,168.984 699.15,168.83 698.705,168.515C698.35,168.257 698.141,167.841 698.146,167.402C698.143,167.117 698.232,166.839 698.401,166.609C698.583,166.367 698.831,166.182 699.114,166.076C699.542,165.922 699.986,165.813 700.437,165.752C700.983,165.681 701.523,165.567 702.051,165.411L702.051,165.273C702.072,165.055 701.984,164.84 701.815,164.701C701.539,164.562 701.23,164.503 700.922,164.531C700.682,164.518 700.443,164.569 700.229,164.678C700.044,164.8 699.903,164.98 699.829,165.189M702.053,166.315C701.841,166.374 701.504,166.445 701.041,166.528C700.73,166.568 700.426,166.649 700.136,166.769C699.945,166.859 699.82,167.047 699.811,167.258C699.815,167.456 699.911,167.642 700.072,167.758C700.261,167.905 700.496,167.981 700.735,167.971C701.039,167.97 701.336,167.885 701.594,167.725C701.778,167.624 701.92,167.461 701.994,167.265C702.049,167.044 702.071,166.816 702.059,166.589L702.053,166.315Z" style="fill:rgb(22,22,21);"/>
                    </g>
                    <g id="Pfad_15" transform="matrix(1,0,0,1,-436.841,-97.12)">
                        <path d="M718.825,160.872L718.825,161.979L717.69,161.979L717.69,164.094C717.679,164.344 717.69,164.595 717.722,164.843C717.748,164.918 717.801,164.98 717.87,165.018C717.956,165.066 718.053,165.09 718.151,165.087C718.38,165.073 718.605,165.028 718.822,164.954L718.963,166.03C718.54,166.174 718.095,166.244 717.648,166.237C717.373,166.24 717.099,166.198 716.838,166.112C716.636,166.051 716.454,165.939 716.309,165.785C716.186,165.628 716.105,165.441 716.075,165.244C716.03,164.92 716.012,164.593 716.022,164.266L716.022,161.979L715.258,161.979L715.258,160.872L716.022,160.872L716.022,159.828L717.691,159.018L717.691,160.872L718.825,160.872Z" style="fill:rgb(22,22,21);"/>
                    </g>
                    <g id="Pfad_16" transform="matrix(1,0,0,1,-444.517,-96.895)">
                        <path d="M727.825,158.65L729.488,158.65L729.488,159.935L727.825,159.935L727.825,158.65ZM727.825,160.65L729.488,160.65L729.488,165.898L727.825,165.898L727.825,160.65Z" style="fill:rgb(22,22,21);"/>
                    </g>
                    <g id="Pfad_17" transform="matrix(1,0,0,1,-449.46,-99.84)">
                        <path d="M735.918,166.141C735.923,165.665 736.065,165.2 736.326,164.802C736.605,164.365 737.009,164.022 737.484,163.815C738.01,163.581 738.581,163.464 739.157,163.472C740.004,163.437 740.835,163.713 741.494,164.246C742.083,164.722 742.419,165.444 742.405,166.201C742.418,166.965 742.079,167.694 741.486,168.175C740.836,168.71 740.011,168.989 739.169,168.958C738.603,168.961 738.042,168.85 737.52,168.633C737.033,168.445 736.616,168.111 736.326,167.677C736.043,167.216 735.901,166.682 735.918,166.142M737.618,166.216C737.614,166.26 737.612,166.304 737.612,166.348C737.612,167.16 738.28,167.828 739.092,167.828C739.114,167.828 739.135,167.828 739.157,167.827C739.561,167.838 739.954,167.689 740.248,167.412C740.56,167.091 740.721,166.652 740.69,166.206C740.718,165.766 740.557,165.334 740.248,165.02C739.627,164.469 738.683,164.469 738.062,165.02C737.748,165.337 737.586,165.775 737.617,166.22" style="fill:rgb(22,22,21);"/>
                    </g>
                    <g id="Pfad_18" transform="matrix(1,0,0,1,-461.928,-99.841)">
                        <path d="M762.061,168.84L760.4,168.84L760.4,166.162C760.423,165.792 760.387,165.421 760.293,165.062C760.223,164.898 760.101,164.761 759.946,164.674C759.769,164.578 759.571,164.531 759.37,164.536C759.099,164.533 758.831,164.602 758.595,164.736C758.382,164.851 758.215,165.037 758.124,165.261C758.018,165.654 757.975,166.061 757.997,166.467L757.997,168.843L756.334,168.843L756.334,163.595L757.877,163.595L757.877,164.366C758.405,163.782 759.163,163.457 759.95,163.476C760.292,163.472 760.633,163.528 760.956,163.641C761.216,163.725 761.453,163.87 761.645,164.064C761.798,164.23 761.909,164.43 761.97,164.647C762.042,164.953 762.073,165.266 762.063,165.58L762.061,168.84Z" style="fill:rgb(22,22,21);"/>
                    </g>
                    <g id="Pfad_19" transform="matrix(1,0,0,1,-329.273,-117.58)">
                        <path d="M544.981,194.19L543.341,194.436C543.302,194.189 543.167,193.967 542.965,193.819C542.74,193.672 542.474,193.6 542.206,193.612C541.841,193.594 541.483,193.723 541.214,193.97C540.935,194.304 540.801,194.737 540.844,195.17C540.797,195.641 540.931,196.113 541.22,196.489C541.487,196.752 541.853,196.892 542.228,196.874C542.263,196.877 542.297,196.879 542.332,196.879C542.9,196.879 543.379,196.44 543.428,195.874L545.062,196.105C544.925,196.683 544.576,197.189 544.084,197.523C543.5,197.87 542.827,198.037 542.149,198.002C541.351,198.044 540.565,197.785 539.949,197.276C538.861,196.161 538.861,194.356 539.949,193.241C540.575,192.731 541.37,192.472 542.176,192.516C542.811,192.485 543.442,192.628 544.002,192.929C544.465,193.22 544.81,193.666 544.976,194.187" style="fill:rgb(22,22,21);"/>
                    </g>
                    <g id="Pfad_20" transform="matrix(1,0,0,1,-340.087,-117.58)">
                        <path d="M556.837,195.187C556.842,194.711 556.984,194.246 557.245,193.848C557.524,193.411 557.928,193.068 558.403,192.861C558.929,192.627 559.5,192.51 560.076,192.518C560.923,192.483 561.754,192.759 562.413,193.292C563.002,193.768 563.338,194.49 563.324,195.247C563.337,196.011 562.998,196.74 562.405,197.221C561.755,197.756 560.93,198.035 560.088,198.004C559.522,198.007 558.961,197.896 558.439,197.679C557.952,197.491 557.535,197.157 557.245,196.723C556.962,196.262 556.82,195.728 556.837,195.188M558.537,195.262C558.533,195.306 558.531,195.35 558.531,195.394C558.531,196.206 559.199,196.874 560.011,196.874C560.033,196.874 560.055,196.874 560.077,196.873C560.481,196.884 560.874,196.735 561.168,196.458C561.48,196.137 561.641,195.698 561.61,195.252C561.638,194.812 561.477,194.38 561.168,194.066C560.547,193.515 559.603,193.515 558.982,194.066C558.668,194.383 558.506,194.821 558.537,195.266" style="fill:rgb(22,22,21);"/>
                    </g>
                    <g id="Pfad_21" transform="matrix(1,0,0,1,-352.377,-117.58)">
                        <path d="M576.961,192.638L578.494,192.638L578.494,193.353C579.002,192.814 579.713,192.511 580.454,192.518C580.814,192.509 581.171,192.58 581.5,192.725C581.796,192.863 582.048,193.08 582.229,193.352C582.483,193.087 582.787,192.874 583.122,192.725C583.445,192.586 583.794,192.516 584.146,192.518C584.55,192.506 584.951,192.587 585.318,192.754C585.625,192.899 585.877,193.14 586.033,193.442C586.169,193.788 586.228,194.159 586.205,194.53L586.205,197.885L584.542,197.885L584.542,194.885C584.578,194.539 584.519,194.19 584.37,193.876C584.196,193.668 583.932,193.556 583.661,193.576C583.429,193.575 583.202,193.637 583.002,193.755C582.799,193.872 582.642,194.056 582.56,194.276C582.451,194.627 582.405,194.993 582.423,195.36L582.423,197.88L580.761,197.88L580.761,195.01C580.78,194.678 580.75,194.344 580.672,194.021C580.621,193.883 580.524,193.766 580.397,193.691C580.241,193.611 580.066,193.573 579.89,193.581C579.648,193.577 579.41,193.637 579.199,193.755C578.997,193.864 578.84,194.042 578.756,194.255C578.648,194.605 578.603,194.971 578.622,195.336L578.622,197.886L576.96,197.886L576.961,192.638Z" style="fill:rgb(22,22,21);"/>
                    </g>
                    <g id="Pfad_22" transform="matrix(1,0,0,1,-369.749,-114.635)">
                        <path d="M605.4,187.7L607.062,187.7L607.062,188.985L605.4,188.985L605.4,187.7ZM605.4,189.7L607.062,189.7L607.062,194.948L605.4,194.948L605.4,189.7Z" style="fill:rgb(22,22,21);"/>
                    </g>
                    <g id="Pfad_23" transform="matrix(1,0,0,1,-375.278,-117.58)">
                        <path d="M620.186,197.886L618.524,197.886L618.524,195.208C618.547,194.838 618.511,194.467 618.417,194.108C618.347,193.944 618.225,193.808 618.07,193.72C617.893,193.624 617.695,193.577 617.494,193.582C617.222,193.578 616.954,193.647 616.718,193.782C616.505,193.897 616.338,194.083 616.247,194.307C616.141,194.7 616.098,195.107 616.12,195.513L616.12,197.889L614.458,197.889L614.458,192.641L616,192.641L616,193.412C616.528,192.827 617.286,192.502 618.073,192.522C618.415,192.518 618.756,192.574 619.079,192.687C619.339,192.771 619.576,192.916 619.768,193.11C619.921,193.276 620.032,193.476 620.093,193.693C620.165,193.999 620.196,194.312 620.186,194.626L620.186,197.886Z" style="fill:rgb(22,22,21);"/>
                    </g>
                    <g id="Pfad_24" transform="matrix(1,0,0,1,-386.593,-117.58)">
                        <path d="M633.2,198.232L635.1,198.424C635.113,198.577 635.193,198.716 635.318,198.805C635.548,198.92 635.806,198.972 636.063,198.954C636.397,198.973 636.73,198.917 637.04,198.791C637.188,198.716 637.306,198.592 637.372,198.44C637.436,198.234 637.462,198.018 637.449,197.802L637.449,197.036C636.982,197.588 636.289,197.901 635.566,197.886C634.795,197.918 634.051,197.587 633.56,196.992C633.164,196.493 632.959,195.869 632.98,195.233C632.93,194.482 633.207,193.745 633.741,193.215C634.257,192.746 634.935,192.495 635.632,192.515C636.368,192.497 637.075,192.812 637.555,193.37L637.555,192.635L639.111,192.635L639.111,197.344C639.133,197.814 639.071,198.284 638.927,198.732C638.823,199.014 638.646,199.263 638.414,199.454C638.149,199.648 637.848,199.788 637.529,199.864C637.071,199.973 636.6,200.023 636.129,200.013C635.345,200.076 634.56,199.918 633.862,199.556C633.452,199.314 633.198,198.873 633.193,198.397C633.193,198.35 633.193,198.297 633.199,198.228M634.684,195.15C634.645,195.593 634.785,196.033 635.072,196.373C635.323,196.629 635.67,196.769 636.028,196.761C636.411,196.769 636.781,196.625 637.058,196.361C637.357,196.045 637.51,195.616 637.478,195.182C637.515,194.742 637.37,194.305 637.078,193.973C636.809,193.706 636.441,193.561 636.062,193.573C635.694,193.561 635.337,193.701 635.076,193.961C634.793,194.288 634.654,194.714 634.688,195.145" style="fill:rgb(22,22,21);"/>
                    </g>
                    <g id="Pfad_25" transform="matrix(1,0,0,1,-402.864,-117.58)">
                        <path d="M661.306,194.239L659.797,194.011C659.938,193.54 660.25,193.138 660.672,192.884C661.246,192.606 661.882,192.48 662.519,192.518C663.081,192.492 663.643,192.566 664.178,192.739C664.484,192.843 664.751,193.038 664.944,193.297C665.125,193.685 665.202,194.113 665.166,194.54L665.148,196.161C665.137,196.503 665.164,196.846 665.229,197.182C665.295,197.428 665.396,197.664 665.529,197.882L663.88,197.882C663.838,197.789 663.78,197.653 663.72,197.472C663.703,197.417 663.683,197.362 663.661,197.309C663.389,197.532 663.081,197.708 662.75,197.828C662.417,197.944 662.066,198.003 661.713,198C661.169,198.03 660.629,197.876 660.184,197.561C659.829,197.303 659.62,196.887 659.625,196.448C659.621,196.163 659.711,195.885 659.88,195.655C660.062,195.413 660.31,195.228 660.593,195.122C661.021,194.968 661.465,194.859 661.916,194.798C662.462,194.727 663.002,194.613 663.53,194.457L663.53,194.319C663.552,194.101 663.463,193.886 663.294,193.747C663.018,193.608 662.709,193.549 662.401,193.577C662.161,193.564 661.922,193.615 661.708,193.724C661.522,193.846 661.382,194.026 661.308,194.235M663.532,195.361C663.32,195.42 662.983,195.491 662.52,195.574C662.209,195.614 661.905,195.695 661.615,195.815C661.424,195.905 661.299,196.093 661.29,196.304C661.294,196.502 661.39,196.688 661.551,196.804C661.74,196.951 661.975,197.027 662.214,197.017C662.518,197.016 662.815,196.931 663.073,196.771C663.257,196.67 663.399,196.507 663.473,196.311C663.528,196.09 663.55,195.862 663.538,195.635L663.532,195.361Z" style="fill:rgb(22,22,21);"/>
                    </g>
                    <g id="Rechteck_23" transform="matrix(1,0,0,1,264.109,73.061)">
                        <rect x="0" y="0" width="1.662" height="7.244" style="fill:rgb(22,22,21);"/>
                    </g>
                    <g id="Pfad_26" transform="matrix(1,0,0,1,-419.942,-114.635)">
                        <path d="M687.587,187.7L689.249,187.7L689.249,188.985L687.587,188.985L687.587,187.7ZM687.587,189.7L689.249,189.7L689.249,194.948L687.587,194.948L687.587,189.7Z" style="fill:rgb(22,22,21);"/>
                    </g>
                    <g id="Pfad_27" transform="matrix(1,0,0,1,-424.226,-117.768)">
                        <path d="M697.134,198.074L694.601,192.826L696.346,192.826L697.53,195.504L697.874,196.398C697.965,196.17 698.023,196.02 698.046,195.948C698.102,195.8 698.161,195.648 698.223,195.504L699.423,192.826L701.134,192.826L698.634,198.074L697.134,198.074Z" style="fill:rgb(22,22,21);"/>
                    </g>
                    <g id="Pfad_28" transform="matrix(1,0,0,1,-435.568,-117.58)">
                        <path d="M717.3,196.216L718.958,196.447C718.761,196.936 718.405,197.344 717.948,197.606C717.419,197.89 716.823,198.028 716.223,198.006C715.322,198.081 714.433,197.753 713.796,197.112C713.372,196.607 713.151,195.963 713.174,195.304C713.133,194.536 713.432,193.787 713.992,193.26C714.56,192.758 715.3,192.494 716.057,192.521C716.155,192.51 716.253,192.505 716.351,192.505C717.849,192.505 719.081,193.737 719.081,195.235C719.081,195.379 719.07,195.523 719.047,195.665L714.879,195.665C714.869,196.027 715.015,196.377 715.279,196.625C715.543,196.857 715.886,196.98 716.238,196.969C716.47,196.977 716.699,196.915 716.895,196.791C717.088,196.65 717.229,196.448 717.295,196.218M717.39,194.818C717.402,194.473 717.267,194.14 717.018,193.901C716.507,193.477 715.757,193.485 715.254,193.919C715.011,194.153 714.883,194.482 714.904,194.819L717.39,194.818Z" style="fill:rgb(22,22,21);"/>
                    </g>
                </g>
            </g>
        </g>
    </g>
</svg>
